<svg xmlns="http://www.w3.org/2000/svg" xmlns:xlink="http://www.w3.org/1999/xlink" width="624" height="553" contentScriptType="application/ecmascript" contentStyleType="text/css" style="width:624px;height:553px" preserveAspectRatio="none" version="1.1" viewBox="0 0 624 553" zoomAndPan="magnify"><defs><filter id="fx1m04x" width="300%" height="300%" x="-1" y="-1"><feGaussianBlur result="blurOut" stdDeviation="2"/><feColorMatrix in="blurOut" result="blurOut2" type="matrix" values="0 0 0 0 0 0 0 0 0 0 0 0 0 0 0 0 0 0 .4 0"/><feOffset dx="4" dy="4" in="blurOut2" result="blurOut3"/><feBlend in="SourceGraphic" in2="blurOut3" mode="normal"/></filter></defs><g><rect style="stroke:#000;stroke-width:1.5" width="370" height="464.297" x="125" y="8" fill="#FFF" filter="url(#fx1m04x)" rx="12.5" ry="12.5"/><rect style="stroke:#fff;stroke-width:1" width="364" height="432" x="128" y="37.297" fill="#FFF" rx="12.5" ry="12.5"/><line style="stroke:#000;stroke-width:1.5" x1="125" x2="495" y1="34.297" y2="34.297"/><text x="238" y="25.995" fill="#000" font-family="sans-serif" font-size="14" lengthAdjust="spacingAndGlyphs" textLength="144">HandleFrontend v1.0</text><rect style="stroke:#92a0f2;stroke-width:1.5" width="190" height="78.203" x="229" y="104.297" fill="#F8F8FF" filter="url(#fx1m04x)" rx="12.5" ry="12.5"/><line style="stroke:#92a0f2;stroke-width:1.5" x1="229" x2="419" y1="130.594" y2="130.594"/><text x="270.5" y="122.292" fill="#000" font-family="sans-serif" font-size="14" lengthAdjust="spacingAndGlyphs" textLength="107">CheckFrontend</text><text x="234" y="146.732" fill="#000" font-family="sans-serif" font-size="12" lengthAdjust="spacingAndGlyphs" textLength="115">Type: Switch State</text><text x="234" y="160.701" fill="#000" font-family="sans-serif" font-size="12" lengthAdjust="spacingAndGlyphs" textLength="170">Condition type: data-based</text><text x="234" y="174.67" fill="#000" font-family="sans-serif" font-size="12" lengthAdjust="spacingAndGlyphs" textLength="133">Num. of conditions: 2</text><rect style="stroke:#1e5f74;stroke-width:1.5" width="152" height="50.266" x="136" y="235.297" fill="#F8F8FF" filter="url(#fx1m04x)" rx="12.5" ry="12.5"/><line style="stroke:#1e5f74;stroke-width:1.5" x1="136" x2="288" y1="261.594" y2="261.594"/><text x="146" y="253.292" fill="#000" font-family="sans-serif" font-size="14" lengthAdjust="spacingAndGlyphs" textLength="132">InjectFrontendData</text><text x="141" y="277.732" fill="#000" font-family="sans-serif" font-size="12" lengthAdjust="spacingAndGlyphs" textLength="109">Type: Inject State</text><rect style="stroke:#bada55;stroke-width:1.5" width="157" height="78.203" x="251.5" y="322.297" fill="#F8F8FF" filter="url(#fx1m04x)" rx="12.5" ry="12.5"/><line style="stroke:#bada55;stroke-width:1.5" x1="251.5" x2="408.5" y1="348.594" y2="348.594"/><text x="274.5" y="340.292" fill="#000" font-family="sans-serif" font-size="14" lengthAdjust="spacingAndGlyphs" textLength="111">HandleFrontend</text><text x="256.5" y="364.732" fill="#000" font-family="sans-serif" font-size="12" lengthAdjust="spacingAndGlyphs" textLength="137">Type: Operation State</text><text x="256.5" y="378.701" fill="#000" font-family="sans-serif" font-size="12" lengthAdjust="spacingAndGlyphs" textLength="108">Action mode: null</text><text x="256.5" y="392.67" fill="#000" font-family="sans-serif" font-size="12" lengthAdjust="spacingAndGlyphs" textLength="114">Num. of actions: 2</text><ellipse cx="324" cy="57.297" fill="green" filter="url(#fx1m04x)" rx="10" ry="10" style="stroke:none;stroke-width:1"/><ellipse cx="403" cy="447.297" fill="none" filter="url(#fx1m04x)" rx="10" ry="10" style="stroke:orange;stroke-width:1"/><ellipse cx="403.5" cy="447.797" fill="orange" rx="6" ry="6" style="stroke:none;stroke-width:1"/><path fill="none" d="M324,67.6069 C324,75.3769 324,87.0669 324,98.8969" style="stroke:#000;stroke-width:1"/><polygon fill="#000" points="324 103.967 328 94.967 324 98.967 320 94.967 324 103.967" style="stroke:#000;stroke-width:1"/><path fill="none" d="M228.84,168.8969 C214.66,176.6669 201.86,186.8769 193,200.2969 C187.04,209.3269 188.69,220.3769 192.9,230.4569" style="stroke:#000;stroke-width:1"/><polygon fill="#000" points="195 235.007 194.88 225.159 192.914 230.463 187.61 228.497 195 235.007" style="stroke:#000;stroke-width:1"/><text x="194" y="213.364" fill="#000" font-family="sans-serif" font-size="13" lengthAdjust="spacingAndGlyphs" textLength="248">Produced Events: FrontendNewChange</text><path fill="none" d="M419.27,175.9969 C428.62,182.6469 436.88,190.6569 443,200.2969 C492.04,277.5669 432.74,395.0769 410.65,433.5869" style="stroke:#000;stroke-width:1"/><polygon fill="#000" points="407.91 438.287 415.898 432.525 410.428 433.967 408.986 428.497 407.91 438.287" style="stroke:#000;stroke-width:1"/><path fill="none" d="M240.87,285.5169 C252.74,295.4769 266.84,307.3069 280.27,318.5769" style="stroke:#000;stroke-width:1"/><polygon fill="#000" points="284.42 322.057 280.08 313.216 280.584 318.85 274.949 319.354 284.42 322.057" style="stroke:#000;stroke-width:1"/><path fill="none" d="M363.08,400.3669 C374.11,413.0469 385.55,426.2169 393.34,435.1769" style="stroke:#000;stroke-width:1"/><polygon fill="#000" points="396.85 439.227 393.992 429.802 393.581 435.444 387.939 435.033 396.85 439.227" style="stroke:#000;stroke-width:1"/><rect style="stroke:#fff;stroke-width:1" width="615" height="62.891" x="8" y="490" fill="#FFF" rx="5" ry="5"/><text x="14" y="507.995" fill="#000" font-family="sans-serif" font-size="14" lengthAdjust="spacingAndGlyphs" textLength="216">State Types and Border Colors:</text><text x="19" y="526.292" fill="#000" font-family="sans-serif" font-size="14" font-weight="bold" lengthAdjust="spacingAndGlyphs" textLength="44">Event</text><text x="73" y="526.292" fill="#000" font-family="sans-serif" font-size="14" font-weight="bold" lengthAdjust="spacingAndGlyphs" textLength="78">Operation</text><text x="161" y="526.292" fill="#000" font-family="sans-serif" font-size="14" font-weight="bold" lengthAdjust="spacingAndGlyphs" textLength="53">Switch</text><text x="224" y="526.292" fill="#000" font-family="sans-serif" font-size="14" font-weight="bold" lengthAdjust="spacingAndGlyphs" textLength="43">Delay</text><text x="277" y="526.292" fill="#000" font-family="sans-serif" font-size="14" font-weight="bold" lengthAdjust="spacingAndGlyphs" textLength="57">Parallel</text><text x="344" y="526.292" fill="#000" font-family="sans-serif" font-size="14" font-weight="bold" lengthAdjust="spacingAndGlyphs" textLength="67">SubFlow</text><text x="421" y="526.292" fill="#000" font-family="sans-serif" font-size="14" font-weight="bold" lengthAdjust="spacingAndGlyphs" textLength="43">Inject</text><text x="474" y="526.292" fill="#000" font-family="sans-serif" font-size="14" font-weight="bold" lengthAdjust="spacingAndGlyphs" textLength="63">ForEach</text><text x="547" y="526.292" fill="#000" font-family="sans-serif" font-size="14" font-weight="bold" lengthAdjust="spacingAndGlyphs" textLength="65">CallBack</text><rect style="stroke:none;stroke-width:1" width="54" height="16.297" x="14" y="529.594" fill="#7FE5F0"/><rect style="stroke:none;stroke-width:1" width="88" height="16.297" x="68" y="529.594" fill="#BADA55"/><rect style="stroke:none;stroke-width:1" width="63" height="16.297" x="156" y="529.594" fill="#92A0F2"/><rect style="stroke:none;stroke-width:1" width="53" height="16.297" x="219" y="529.594" fill="#B83B5E"/><rect style="stroke:none;stroke-width:1" width="67" height="16.297" x="272" y="529.594" fill="#6A2C70"/><rect style="stroke:none;stroke-width:1" width="77" height="16.297" x="339" y="529.594" fill="#87753C"/><rect style="stroke:none;stroke-width:1" width="53" height="16.297" x="416" y="529.594" fill="#1E5F74"/><rect style="stroke:none;stroke-width:1" width="73" height="16.297" x="469" y="529.594" fill="#931A25"/><rect style="stroke:none;stroke-width:1" width="75" height="16.297" x="542" y="529.594" fill="#FFCB8E"/><line style="stroke:#000;stroke-width:1" x1="14" x2="617" y1="513.297" y2="513.297"/><line style="stroke:#000;stroke-width:1" x1="14" x2="617" y1="529.594" y2="529.594"/><line style="stroke:#000;stroke-width:1" x1="14" x2="617" y1="545.891" y2="545.891"/><line style="stroke:#000;stroke-width:1" x1="14" x2="14" y1="513.297" y2="545.891"/><line style="stroke:#000;stroke-width:1" x1="68" x2="68" y1="513.297" y2="545.891"/><line style="stroke:#000;stroke-width:1" x1="156" x2="156" y1="513.297" y2="545.891"/><line style="stroke:#000;stroke-width:1" x1="219" x2="219" y1="513.297" y2="545.891"/><line style="stroke:#000;stroke-width:1" x1="272" x2="272" y1="513.297" y2="545.891"/><line style="stroke:#000;stroke-width:1" x1="339" x2="339" y1="513.297" y2="545.891"/><line style="stroke:#000;stroke-width:1" x1="416" x2="416" y1="513.297" y2="545.891"/><line style="stroke:#000;stroke-width:1" x1="469" x2="469" y1="513.297" y2="545.891"/><line style="stroke:#000;stroke-width:1" x1="542" x2="542" y1="513.297" y2="545.891"/><line style="stroke:#000;stroke-width:1" x1="617" x2="617" y1="513.297" y2="545.891"/></g></svg>