<svg xmlns="http://www.w3.org/2000/svg" xmlns:xlink="http://www.w3.org/1999/xlink" width="624" height="452" contentScriptType="application/ecmascript" contentStyleType="text/css" style="width:624px;height:452px" preserveAspectRatio="none" version="1.1" viewBox="0 0 624 452" zoomAndPan="magnify"><defs><filter id="f6ws3rs" width="300%" height="300%" x="-1" y="-1"><feGaussianBlur result="blurOut" stdDeviation="2"/><feColorMatrix in="blurOut" result="blurOut2" type="matrix" values="0 0 0 0 0 0 0 0 0 0 0 0 0 0 0 0 0 0 .4 0"/><feOffset dx="4" dy="4" in="blurOut2" result="blurOut3"/><feBlend in="SourceGraphic" in2="blurOut3" mode="normal"/></filter></defs><g><rect style="stroke:#000;stroke-width:1.5" width="309" height="363.297" x="155.5" y="8" fill="#FFF" filter="url(#f6ws3rs)" rx="12.5" ry="12.5"/><rect style="stroke:#fff;stroke-width:1" width="303" height="331" x="158.5" y="37.297" fill="#FFF" rx="12.5" ry="12.5"/><line style="stroke:#000;stroke-width:1.5" x1="155.5" x2="464.5" y1="34.297" y2="34.297"/><text x="195" y="25.995" fill="#000" font-family="sans-serif" font-size="14" lengthAdjust="spacingAndGlyphs" textLength="230">Github PR Checker Workflow v1.0</text><rect style="stroke:#7fe5f0;stroke-width:1.5" width="144" height="64.234" x="178" y="104.297" fill="#F8F8FF" filter="url(#f6ws3rs)" rx="12.5" ry="12.5"/><line style="stroke:#7fe5f0;stroke-width:1.5" x1="178" x2="322" y1="130.594" y2="130.594"/><text x="197.5" y="122.292" fill="#000" font-family="sans-serif" font-size="14" lengthAdjust="spacingAndGlyphs" textLength="105">HandleOpenPR</text><text x="183" y="146.732" fill="#000" font-family="sans-serif" font-size="12" lengthAdjust="spacingAndGlyphs" textLength="110">Type: Event State</text><text x="183" y="160.701" fill="#000" font-family="sans-serif" font-size="12" lengthAdjust="spacingAndGlyphs" textLength="124">Events: PullRequest</text><rect style="stroke:#6a2c70;stroke-width:1.5" width="167" height="78.203" x="166.5" y="205.297" fill="#F8F8FF" filter="url(#f6ws3rs)" rx="12.5" ry="12.5"/><line style="stroke:#6a2c70;stroke-width:1.5" x1="166.5" x2="333.5" y1="231.594" y2="231.594"/><text x="176.5" y="223.292" fill="#000" font-family="sans-serif" font-size="14" lengthAdjust="spacingAndGlyphs" textLength="147">DecoratePullRequest</text><text x="171.5" y="247.732" fill="#000" font-family="sans-serif" font-size="12" lengthAdjust="spacingAndGlyphs" textLength="121">Type: Parallel State</text><text x="171.5" y="261.701" fill="#000" font-family="sans-serif" font-size="12" lengthAdjust="spacingAndGlyphs" textLength="143">Completion type: &quot;and&quot;</text><text x="171.5" y="275.67" fill="#000" font-family="sans-serif" font-size="12" lengthAdjust="spacingAndGlyphs" textLength="127">Num. of branches: 2</text><ellipse cx="250" cy="57.297" fill="green" filter="url(#f6ws3rs)" rx="10" ry="10" style="stroke:none;stroke-width:1"/><ellipse cx="250" cy="346.297" fill="none" filter="url(#f6ws3rs)" rx="10" ry="10" style="stroke:orange;stroke-width:1"/><ellipse cx="250.5" cy="346.797" fill="orange" rx="6" ry="6" style="stroke:none;stroke-width:1"/><path fill="none" d="M250,67.4369 C250,75.3769 250,87.4369 250,99.1969" style="stroke:#000;stroke-width:1"/><polygon fill="#000" points="250 104.207 254 95.207 250 99.207 246 95.207 250 104.207" style="stroke:#000;stroke-width:1"/><path fill="none" d="M250,168.5269 C250,178.3969 250,189.4769 250,200.0269" style="stroke:#000;stroke-width:1"/><polygon fill="#000" points="250 205.157 254 196.157 250 200.157 246 196.157 250 205.157" style="stroke:#000;stroke-width:1"/><path fill="none" d="M250,283.3869 C250,300.0469 250,318.5769 250,330.9769" style="stroke:#000;stroke-width:1"/><polygon fill="#000" points="250 336.227 254 327.227 250 331.227 246 327.227 250 336.227" style="stroke:#000;stroke-width:1"/><text x="251" y="314.364" fill="#000" font-family="sans-serif" font-size="13" lengthAdjust="spacingAndGlyphs" textLength="179">Produced Events: PRVerified</text><rect style="stroke:#fff;stroke-width:1" width="615" height="62.891" x="8" y="389" fill="#FFF" rx="5" ry="5"/><text x="14" y="406.995" fill="#000" font-family="sans-serif" font-size="14" lengthAdjust="spacingAndGlyphs" textLength="216">State Types and Border Colors:</text><text x="19" y="425.292" fill="#000" font-family="sans-serif" font-size="14" font-weight="bold" lengthAdjust="spacingAndGlyphs" textLength="44">Event</text><text x="73" y="425.292" fill="#000" font-family="sans-serif" font-size="14" font-weight="bold" lengthAdjust="spacingAndGlyphs" textLength="78">Operation</text><text x="161" y="425.292" fill="#000" font-family="sans-serif" font-size="14" font-weight="bold" lengthAdjust="spacingAndGlyphs" textLength="53">Switch</text><text x="224" y="425.292" fill="#000" font-family="sans-serif" font-size="14" font-weight="bold" lengthAdjust="spacingAndGlyphs" textLength="43">Delay</text><text x="277" y="425.292" fill="#000" font-family="sans-serif" font-size="14" font-weight="bold" lengthAdjust="spacingAndGlyphs" textLength="57">Parallel</text><text x="344" y="425.292" fill="#000" font-family="sans-serif" font-size="14" font-weight="bold" lengthAdjust="spacingAndGlyphs" textLength="67">SubFlow</text><text x="421" y="425.292" fill="#000" font-family="sans-serif" font-size="14" font-weight="bold" lengthAdjust="spacingAndGlyphs" textLength="43">Inject</text><text x="474" y="425.292" fill="#000" font-family="sans-serif" font-size="14" font-weight="bold" lengthAdjust="spacingAndGlyphs" textLength="63">ForEach</text><text x="547" y="425.292" fill="#000" font-family="sans-serif" font-size="14" font-weight="bold" lengthAdjust="spacingAndGlyphs" textLength="65">CallBack</text><rect style="stroke:none;stroke-width:1" width="54" height="16.297" x="14" y="428.594" fill="#7FE5F0"/><rect style="stroke:none;stroke-width:1" width="88" height="16.297" x="68" y="428.594" fill="#BADA55"/><rect style="stroke:none;stroke-width:1" width="63" height="16.297" x="156" y="428.594" fill="#92A0F2"/><rect style="stroke:none;stroke-width:1" width="53" height="16.297" x="219" y="428.594" fill="#B83B5E"/><rect style="stroke:none;stroke-width:1" width="67" height="16.297" x="272" y="428.594" fill="#6A2C70"/><rect style="stroke:none;stroke-width:1" width="77" height="16.297" x="339" y="428.594" fill="#87753C"/><rect style="stroke:none;stroke-width:1" width="53" height="16.297" x="416" y="428.594" fill="#1E5F74"/><rect style="stroke:none;stroke-width:1" width="73" height="16.297" x="469" y="428.594" fill="#931A25"/><rect style="stroke:none;stroke-width:1" width="75" height="16.297" x="542" y="428.594" fill="#FFCB8E"/><line style="stroke:#000;stroke-width:1" x1="14" x2="617" y1="412.297" y2="412.297"/><line style="stroke:#000;stroke-width:1" x1="14" x2="617" y1="428.594" y2="428.594"/><line style="stroke:#000;stroke-width:1" x1="14" x2="617" y1="444.891" y2="444.891"/><line style="stroke:#000;stroke-width:1" x1="14" x2="14" y1="412.297" y2="444.891"/><line style="stroke:#000;stroke-width:1" x1="68" x2="68" y1="412.297" y2="444.891"/><line style="stroke:#000;stroke-width:1" x1="156" x2="156" y1="412.297" y2="444.891"/><line style="stroke:#000;stroke-width:1" x1="219" x2="219" y1="412.297" y2="444.891"/><line style="stroke:#000;stroke-width:1" x1="272" x2="272" y1="412.297" y2="444.891"/><line style="stroke:#000;stroke-width:1" x1="339" x2="339" y1="412.297" y2="444.891"/><line style="stroke:#000;stroke-width:1" x1="416" x2="416" y1="412.297" y2="444.891"/><line style="stroke:#000;stroke-width:1" x1="469" x2="469" y1="412.297" y2="444.891"/><line style="stroke:#000;stroke-width:1" x1="542" x2="542" y1="412.297" y2="444.891"/><line style="stroke:#000;stroke-width:1" x1="617" x2="617" y1="412.297" y2="444.891"/></g></svg>