<svg xmlns="http://www.w3.org/2000/svg" xmlns:xlink="http://www.w3.org/1999/xlink" width="624" height="438" contentScriptType="application/ecmascript" contentStyleType="text/css" style="width:624px;height:438px" preserveAspectRatio="none" version="1.1" viewBox="0 0 624 438" zoomAndPan="magnify"><defs><filter id="fvrfg0q" width="300%" height="300%" x="-1" y="-1"><feGaussianBlur result="blurOut" stdDeviation="2"/><feColorMatrix in="blurOut" result="blurOut2" type="matrix" values="0 0 0 0 0 0 0 0 0 0 0 0 0 0 0 0 0 0 .4 0"/><feOffset dx="4" dy="4" in="blurOut2" result="blurOut3"/><feBlend in="SourceGraphic" in2="blurOut3" mode="normal"/></filter></defs><g><rect style="stroke:#000;stroke-width:1.5" width="323" height="349.297" x="148.5" y="8" fill="#FFF" filter="url(#fvrfg0q)" rx="12.5" ry="12.5"/><rect style="stroke:#fff;stroke-width:1" width="317" height="317" x="151.5" y="37.297" fill="#FFF" rx="12.5" ry="12.5"/><line style="stroke:#000;stroke-width:1.5" x1="148.5" x2="471.5" y1="34.297" y2="34.297"/><text x="242" y="25.995" fill="#000" font-family="sans-serif" font-size="14" lengthAdjust="spacingAndGlyphs" textLength="136">Fraud Handling v1.0</text><rect style="stroke:#92a0f2;stroke-width:1.5" width="190" height="78.203" x="248" y="104.297" fill="#F8F8FF" filter="url(#fvrfg0q)" rx="12.5" ry="12.5"/><line style="stroke:#92a0f2;stroke-width:1.5" x1="248" x2="438" y1="130.594" y2="130.594"/><text x="293.5" y="122.292" fill="#000" font-family="sans-serif" font-size="14" lengthAdjust="spacingAndGlyphs" textLength="99">FraudHandling</text><text x="253" y="146.732" fill="#000" font-family="sans-serif" font-size="12" lengthAdjust="spacingAndGlyphs" textLength="115">Type: Switch State</text><text x="253" y="160.701" fill="#000" font-family="sans-serif" font-size="12" lengthAdjust="spacingAndGlyphs" textLength="170">Condition type: data-based</text><text x="253" y="174.67" fill="#000" font-family="sans-serif" font-size="12" lengthAdjust="spacingAndGlyphs" textLength="133">Num. of conditions: 2</text><rect style="stroke:#1e5f74;stroke-width:1.5" width="189" height="50.266" x="159.5" y="219.297" fill="#F8F8FF" filter="url(#fvrfg0q)" rx="12.5" ry="12.5"/><line style="stroke:#1e5f74;stroke-width:1.5" x1="159.5" x2="348.5" y1="245.594" y2="245.594"/><text x="169.5" y="237.292" fill="#000" font-family="sans-serif" font-size="14" lengthAdjust="spacingAndGlyphs" textLength="169">FraudVerificationNeeded</text><text x="164.5" y="261.732" fill="#000" font-family="sans-serif" font-size="12" lengthAdjust="spacingAndGlyphs" textLength="109">Type: Inject State</text><ellipse cx="343" cy="57.297" fill="green" filter="url(#fvrfg0q)" rx="10" ry="10" style="stroke:none;stroke-width:1"/><ellipse cx="315" cy="332.297" fill="none" filter="url(#fvrfg0q)" rx="10" ry="10" style="stroke:orange;stroke-width:1"/><ellipse cx="315.5" cy="332.797" fill="orange" rx="6" ry="6" style="stroke:none;stroke-width:1"/><path fill="none" d="M343,67.6069 C343,75.3769 343,87.0669 343,98.8969" style="stroke:#000;stroke-width:1"/><polygon fill="#000" points="343 103.967 347 94.967 343 98.967 339 94.967 343 103.967" style="stroke:#000;stroke-width:1"/><path fill="none" d="M308.59,182.5769 C298.83,193.4269 288.39,205.0469 279.28,215.1769" style="stroke:#000;stroke-width:1"/><polygon fill="#000" points="275.72 219.137 284.706 215.106 279.058 215.414 278.75 209.766 275.72 219.137" style="stroke:#000;stroke-width:1"/><path fill="none" d="M382.98,182.4469 C413.86,216.5869 446.86,266.8969 418,304.2969 C407.3,318.1669 355.99,326.2969 330.07,329.5869" style="stroke:#000;stroke-width:1"/><polygon fill="#000" points="324.94 330.217 334.363 333.083 329.902 329.604 333.382 325.143 324.94 330.217" style="stroke:#000;stroke-width:1"/><path fill="none" d="M211.03,269.4969 C198.07,279.8769 189.51,292.3469 199,304.2969 C211.42,319.9369 271.12,327.3469 299.69,330.0369" style="stroke:#000;stroke-width:1"/><polygon fill="#000" points="304.97 330.517 296.374 325.71 299.991 330.059 295.642 333.676 304.97 330.517" style="stroke:#000;stroke-width:1"/><text x="200" y="300.364" fill="#000" font-family="sans-serif" font-size="13" lengthAdjust="spacingAndGlyphs" textLength="217">Produced Events: FraudEvaluation</text><rect style="stroke:#fff;stroke-width:1" width="615" height="62.891" x="8" y="375" fill="#FFF" rx="5" ry="5"/><text x="14" y="392.995" fill="#000" font-family="sans-serif" font-size="14" lengthAdjust="spacingAndGlyphs" textLength="216">State Types and Border Colors:</text><text x="19" y="411.292" fill="#000" font-family="sans-serif" font-size="14" font-weight="bold" lengthAdjust="spacingAndGlyphs" textLength="44">Event</text><text x="73" y="411.292" fill="#000" font-family="sans-serif" font-size="14" font-weight="bold" lengthAdjust="spacingAndGlyphs" textLength="78">Operation</text><text x="161" y="411.292" fill="#000" font-family="sans-serif" font-size="14" font-weight="bold" lengthAdjust="spacingAndGlyphs" textLength="53">Switch</text><text x="224" y="411.292" fill="#000" font-family="sans-serif" font-size="14" font-weight="bold" lengthAdjust="spacingAndGlyphs" textLength="43">Delay</text><text x="277" y="411.292" fill="#000" font-family="sans-serif" font-size="14" font-weight="bold" lengthAdjust="spacingAndGlyphs" textLength="57">Parallel</text><text x="344" y="411.292" fill="#000" font-family="sans-serif" font-size="14" font-weight="bold" lengthAdjust="spacingAndGlyphs" textLength="67">SubFlow</text><text x="421" y="411.292" fill="#000" font-family="sans-serif" font-size="14" font-weight="bold" lengthAdjust="spacingAndGlyphs" textLength="43">Inject</text><text x="474" y="411.292" fill="#000" font-family="sans-serif" font-size="14" font-weight="bold" lengthAdjust="spacingAndGlyphs" textLength="63">ForEach</text><text x="547" y="411.292" fill="#000" font-family="sans-serif" font-size="14" font-weight="bold" lengthAdjust="spacingAndGlyphs" textLength="65">CallBack</text><rect style="stroke:none;stroke-width:1" width="54" height="16.297" x="14" y="414.594" fill="#7FE5F0"/><rect style="stroke:none;stroke-width:1" width="88" height="16.297" x="68" y="414.594" fill="#BADA55"/><rect style="stroke:none;stroke-width:1" width="63" height="16.297" x="156" y="414.594" fill="#92A0F2"/><rect style="stroke:none;stroke-width:1" width="53" height="16.297" x="219" y="414.594" fill="#B83B5E"/><rect style="stroke:none;stroke-width:1" width="67" height="16.297" x="272" y="414.594" fill="#6A2C70"/><rect style="stroke:none;stroke-width:1" width="77" height="16.297" x="339" y="414.594" fill="#87753C"/><rect style="stroke:none;stroke-width:1" width="53" height="16.297" x="416" y="414.594" fill="#1E5F74"/><rect style="stroke:none;stroke-width:1" width="73" height="16.297" x="469" y="414.594" fill="#931A25"/><rect style="stroke:none;stroke-width:1" width="75" height="16.297" x="542" y="414.594" fill="#FFCB8E"/><line style="stroke:#000;stroke-width:1" x1="14" x2="617" y1="398.297" y2="398.297"/><line style="stroke:#000;stroke-width:1" x1="14" x2="617" y1="414.594" y2="414.594"/><line style="stroke:#000;stroke-width:1" x1="14" x2="617" y1="430.891" y2="430.891"/><line style="stroke:#000;stroke-width:1" x1="14" x2="14" y1="398.297" y2="430.891"/><line style="stroke:#000;stroke-width:1" x1="68" x2="68" y1="398.297" y2="430.891"/><line style="stroke:#000;stroke-width:1" x1="156" x2="156" y1="398.297" y2="430.891"/><line style="stroke:#000;stroke-width:1" x1="219" x2="219" y1="398.297" y2="430.891"/><line style="stroke:#000;stroke-width:1" x1="272" x2="272" y1="398.297" y2="430.891"/><line style="stroke:#000;stroke-width:1" x1="339" x2="339" y1="398.297" y2="430.891"/><line style="stroke:#000;stroke-width:1" x1="416" x2="416" y1="398.297" y2="430.891"/><line style="stroke:#000;stroke-width:1" x1="469" x2="469" y1="398.297" y2="430.891"/><line style="stroke:#000;stroke-width:1" x1="542" x2="542" y1="398.297" y2="430.891"/><line style="stroke:#000;stroke-width:1" x1="617" x2="617" y1="398.297" y2="430.891"/></g></svg>