<svg xmlns="http://www.w3.org/2000/svg" xmlns:xlink="http://www.w3.org/1999/xlink" width="624" height="433" contentScriptType="application/ecmascript" contentStyleType="text/css" style="width:624px;height:433px" preserveAspectRatio="none" version="1.1" viewBox="0 0 624 433" zoomAndPan="magnify"><defs><filter id="f102qej" width="300%" height="300%" x="-1" y="-1"><feGaussianBlur result="blurOut" stdDeviation="2"/><feColorMatrix in="blurOut" result="blurOut2" type="matrix" values="0 0 0 0 0 0 0 0 0 0 0 0 0 0 0 0 0 0 .4 0"/><feOffset dx="4" dy="4" in="blurOut2" result="blurOut3"/><feBlend in="SourceGraphic" in2="blurOut3" mode="normal"/></filter></defs><g><rect style="stroke:#000;stroke-width:1.5" width="207" height="344.297" x="206.5" y="8" fill="#FFF" filter="url(#f102qej)" rx="12.5" ry="12.5"/><rect style="stroke:#fff;stroke-width:1" width="201" height="312" x="209.5" y="37.297" fill="#FFF" rx="12.5" ry="12.5"/><line style="stroke:#000;stroke-width:1.5" x1="206.5" x2="413.5" y1="34.297" y2="34.297"/><text x="241" y="25.995" fill="#000" font-family="sans-serif" font-size="14" lengthAdjust="spacingAndGlyphs" textLength="138">Order Workflow v1.0</text><rect style="stroke:#7fe5f0;stroke-width:1.5" width="140" height="64.234" x="229" y="103.297" fill="#F8F8FF" filter="url(#f102qej)" rx="12.5" ry="12.5"/><line style="stroke:#7fe5f0;stroke-width:1.5" x1="229" x2="369" y1="129.594" y2="129.594"/><text x="252" y="121.292" fill="#000" font-family="sans-serif" font-size="14" lengthAdjust="spacingAndGlyphs" textLength="94">ReceiveOrder</text><text x="234" y="145.732" fill="#000" font-family="sans-serif" font-size="12" lengthAdjust="spacingAndGlyphs" textLength="110">Type: Event State</text><text x="234" y="159.701" fill="#000" font-family="sans-serif" font-size="12" lengthAdjust="spacingAndGlyphs" textLength="120">Events: OrderEvent</text><rect style="stroke:#6a2c70;stroke-width:1.5" width="163" height="78.203" x="217.5" y="203.297" fill="#F8F8FF" filter="url(#f102qej)" rx="12.5" ry="12.5"/><line style="stroke:#6a2c70;stroke-width:1.5" x1="217.5" x2="380.5" y1="229.594" y2="229.594"/><text x="251.5" y="221.292" fill="#000" font-family="sans-serif" font-size="14" lengthAdjust="spacingAndGlyphs" textLength="95">ProcessOrder</text><text x="222.5" y="245.732" fill="#000" font-family="sans-serif" font-size="12" lengthAdjust="spacingAndGlyphs" textLength="121">Type: Parallel State</text><text x="222.5" y="259.701" fill="#000" font-family="sans-serif" font-size="12" lengthAdjust="spacingAndGlyphs" textLength="143">Completion type: &quot;and&quot;</text><text x="222.5" y="273.67" fill="#000" font-family="sans-serif" font-size="12" lengthAdjust="spacingAndGlyphs" textLength="127">Num. of branches: 2</text><ellipse cx="299" cy="57.297" fill="green" filter="url(#f102qej)" rx="10" ry="10" style="stroke:none;stroke-width:1"/><ellipse cx="299" cy="327.297" fill="none" filter="url(#f102qej)" rx="10" ry="10" style="stroke:orange;stroke-width:1"/><ellipse cx="299.5" cy="327.797" fill="orange" rx="6" ry="6" style="stroke:none;stroke-width:1"/><path fill="none" d="M299,67.3169 C299,75.0169 299,86.6369 299,98.0469" style="stroke:#000;stroke-width:1"/><polygon fill="#000" points="299 103.267 303 94.267 299 98.267 295 94.267 299 103.267" style="stroke:#000;stroke-width:1"/><path fill="none" d="M299,167.5169 C299,176.9869 299,187.5769 299,197.6969" style="stroke:#000;stroke-width:1"/><polygon fill="#000" points="299 202.947 303 193.947 299 197.947 295 193.947 299 202.947" style="stroke:#000;stroke-width:1"/><path fill="none" d="M299,281.3969 C299,292.1969 299,303.3069 299,311.7769" style="stroke:#000;stroke-width:1"/><polygon fill="#000" points="299 317.187 303 308.187 299 312.187 295 308.187 299 317.187" style="stroke:#000;stroke-width:1"/><rect style="stroke:#fff;stroke-width:1" width="615" height="62.891" x="8" y="370" fill="#FFF" rx="5" ry="5"/><text x="14" y="387.995" fill="#000" font-family="sans-serif" font-size="14" lengthAdjust="spacingAndGlyphs" textLength="216">State Types and Border Colors:</text><text x="19" y="406.292" fill="#000" font-family="sans-serif" font-size="14" font-weight="bold" lengthAdjust="spacingAndGlyphs" textLength="44">Event</text><text x="73" y="406.292" fill="#000" font-family="sans-serif" font-size="14" font-weight="bold" lengthAdjust="spacingAndGlyphs" textLength="78">Operation</text><text x="161" y="406.292" fill="#000" font-family="sans-serif" font-size="14" font-weight="bold" lengthAdjust="spacingAndGlyphs" textLength="53">Switch</text><text x="224" y="406.292" fill="#000" font-family="sans-serif" font-size="14" font-weight="bold" lengthAdjust="spacingAndGlyphs" textLength="43">Delay</text><text x="277" y="406.292" fill="#000" font-family="sans-serif" font-size="14" font-weight="bold" lengthAdjust="spacingAndGlyphs" textLength="57">Parallel</text><text x="344" y="406.292" fill="#000" font-family="sans-serif" font-size="14" font-weight="bold" lengthAdjust="spacingAndGlyphs" textLength="67">SubFlow</text><text x="421" y="406.292" fill="#000" font-family="sans-serif" font-size="14" font-weight="bold" lengthAdjust="spacingAndGlyphs" textLength="43">Inject</text><text x="474" y="406.292" fill="#000" font-family="sans-serif" font-size="14" font-weight="bold" lengthAdjust="spacingAndGlyphs" textLength="63">ForEach</text><text x="547" y="406.292" fill="#000" font-family="sans-serif" font-size="14" font-weight="bold" lengthAdjust="spacingAndGlyphs" textLength="65">CallBack</text><rect style="stroke:none;stroke-width:1" width="54" height="16.297" x="14" y="409.594" fill="#7FE5F0"/><rect style="stroke:none;stroke-width:1" width="88" height="16.297" x="68" y="409.594" fill="#BADA55"/><rect style="stroke:none;stroke-width:1" width="63" height="16.297" x="156" y="409.594" fill="#92A0F2"/><rect style="stroke:none;stroke-width:1" width="53" height="16.297" x="219" y="409.594" fill="#B83B5E"/><rect style="stroke:none;stroke-width:1" width="67" height="16.297" x="272" y="409.594" fill="#6A2C70"/><rect style="stroke:none;stroke-width:1" width="77" height="16.297" x="339" y="409.594" fill="#87753C"/><rect style="stroke:none;stroke-width:1" width="53" height="16.297" x="416" y="409.594" fill="#1E5F74"/><rect style="stroke:none;stroke-width:1" width="73" height="16.297" x="469" y="409.594" fill="#931A25"/><rect style="stroke:none;stroke-width:1" width="75" height="16.297" x="542" y="409.594" fill="#FFCB8E"/><line style="stroke:#000;stroke-width:1" x1="14" x2="617" y1="393.297" y2="393.297"/><line style="stroke:#000;stroke-width:1" x1="14" x2="617" y1="409.594" y2="409.594"/><line style="stroke:#000;stroke-width:1" x1="14" x2="617" y1="425.891" y2="425.891"/><line style="stroke:#000;stroke-width:1" x1="14" x2="14" y1="393.297" y2="425.891"/><line style="stroke:#000;stroke-width:1" x1="68" x2="68" y1="393.297" y2="425.891"/><line style="stroke:#000;stroke-width:1" x1="156" x2="156" y1="393.297" y2="425.891"/><line style="stroke:#000;stroke-width:1" x1="219" x2="219" y1="393.297" y2="425.891"/><line style="stroke:#000;stroke-width:1" x1="272" x2="272" y1="393.297" y2="425.891"/><line style="stroke:#000;stroke-width:1" x1="339" x2="339" y1="393.297" y2="425.891"/><line style="stroke:#000;stroke-width:1" x1="416" x2="416" y1="393.297" y2="425.891"/><line style="stroke:#000;stroke-width:1" x1="469" x2="469" y1="393.297" y2="425.891"/><line style="stroke:#000;stroke-width:1" x1="542" x2="542" y1="393.297" y2="425.891"/><line style="stroke:#000;stroke-width:1" x1="617" x2="617" y1="393.297" y2="425.891"/></g></svg>