<svg xmlns="http://www.w3.org/2000/svg" xmlns:xlink="http://www.w3.org/1999/xlink" width="634" height="438" contentScriptType="application/ecmascript" contentStyleType="text/css" style="width:634px;height:438px" preserveAspectRatio="none" version="1.1" viewBox="0 0 634 438" zoomAndPan="magnify"><defs><filter id="fi0q7gk" width="300%" height="300%" x="-1" y="-1"><feGaussianBlur result="blurOut" stdDeviation="2"/><feColorMatrix in="blurOut" result="blurOut2" type="matrix" values="0 0 0 0 0 0 0 0 0 0 0 0 0 0 0 0 0 0 .4 0"/><feOffset dx="4" dy="4" in="blurOut2" result="blurOut3"/><feBlend in="SourceGraphic" in2="blurOut3" mode="normal"/></filter></defs><g><rect style="stroke:#000;stroke-width:1.5" width="621" height="349.297" x="6" y="8" fill="#FFF" filter="url(#fi0q7gk)" rx="12.5" ry="12.5"/><rect style="stroke:#fff;stroke-width:1" width="615" height="317" x="9" y="37.297" fill="#FFF" rx="12.5" ry="12.5"/><line style="stroke:#000;stroke-width:1.5" x1="6" x2="627" y1="34.297" y2="34.297"/><text x="238" y="25.995" fill="#000" font-family="sans-serif" font-size="14" lengthAdjust="spacingAndGlyphs" textLength="157">Shipping Handling v1.0</text><rect style="stroke:#92a0f2;stroke-width:1.5" width="190" height="78.203" x="81" y="104.297" fill="#F8F8FF" filter="url(#fi0q7gk)" rx="12.5" ry="12.5"/><line style="stroke:#92a0f2;stroke-width:1.5" x1="81" x2="271" y1="130.594" y2="130.594"/><text x="116" y="122.292" fill="#000" font-family="sans-serif" font-size="14" lengthAdjust="spacingAndGlyphs" textLength="120">ShippingHandling</text><text x="86" y="146.732" fill="#000" font-family="sans-serif" font-size="12" lengthAdjust="spacingAndGlyphs" textLength="115">Type: Switch State</text><text x="86" y="160.701" fill="#000" font-family="sans-serif" font-size="12" lengthAdjust="spacingAndGlyphs" textLength="170">Condition type: data-based</text><text x="86" y="174.67" fill="#000" font-family="sans-serif" font-size="12" lengthAdjust="spacingAndGlyphs" textLength="133">Num. of conditions: 2</text><rect style="stroke:#1e5f74;stroke-width:1.5" width="146" height="50.266" x="17" y="219.297" fill="#F8F8FF" filter="url(#fi0q7gk)" rx="12.5" ry="12.5"/><line style="stroke:#1e5f74;stroke-width:1.5" x1="17" x2="163" y1="245.594" y2="245.594"/><text x="27" y="237.292" fill="#000" font-family="sans-serif" font-size="14" lengthAdjust="spacingAndGlyphs" textLength="126">DomesticShipping</text><text x="22" y="261.732" fill="#000" font-family="sans-serif" font-size="12" lengthAdjust="spacingAndGlyphs" textLength="109">Type: Inject State</text><rect style="stroke:#1e5f74;stroke-width:1.5" width="165" height="50.266" x="210.5" y="219.297" fill="#F8F8FF" filter="url(#fi0q7gk)" rx="12.5" ry="12.5"/><line style="stroke:#1e5f74;stroke-width:1.5" x1="210.5" x2="375.5" y1="245.594" y2="245.594"/><text x="220.5" y="237.292" fill="#000" font-family="sans-serif" font-size="14" lengthAdjust="spacingAndGlyphs" textLength="145">InternationalShipping</text><text x="215.5" y="261.732" fill="#000" font-family="sans-serif" font-size="12" lengthAdjust="spacingAndGlyphs" textLength="109">Type: Inject State</text><ellipse cx="176" cy="57.297" fill="green" filter="url(#fi0q7gk)" rx="10" ry="10" style="stroke:none;stroke-width:1"/><ellipse cx="177" cy="332.297" fill="none" filter="url(#fi0q7gk)" rx="10" ry="10" style="stroke:orange;stroke-width:1"/><ellipse cx="177.5" cy="332.797" fill="orange" rx="6" ry="6" style="stroke:none;stroke-width:1"/><path fill="none" d="M176,67.6069 C176,75.3769 176,87.0669 176,98.8969" style="stroke:#000;stroke-width:1"/><polygon fill="#000" points="176 103.967 180 94.967 176 98.967 172 94.967 176 103.967" style="stroke:#000;stroke-width:1"/><path fill="none" d="M142.75,182.5769 C133.32,193.4269 123.23,205.0469 114.42,215.1769" style="stroke:#000;stroke-width:1"/><polygon fill="#000" points="110.99 219.137 119.918 214.978 114.274 215.367 113.886 209.723 110.99 219.137" style="stroke:#000;stroke-width:1"/><path fill="none" d="M221.24,182.5769 C234.29,193.6169 248.28,205.4569 260.41,215.7169" style="stroke:#000;stroke-width:1"/><polygon fill="#000" points="264.44 219.137 260.155 210.269 260.624 215.906 254.986 216.375 264.44 219.137" style="stroke:#000;stroke-width:1"/><path fill="none" d="M44.69,269.4069 C31.02,279.7769 21.99,292.2569 32,304.2969 C48.39,324.0169 127.89,329.4069 161.71,330.8169" style="stroke:#000;stroke-width:1"/><polygon fill="#000" points="166.73 331.017 157.897 326.66 161.734 330.817 157.577 334.654 166.73 331.017" style="stroke:#000;stroke-width:1"/><text x="33" y="300.364" fill="#000" font-family="sans-serif" font-size="13" lengthAdjust="spacingAndGlyphs" textLength="267">Produced Events: DomesticShippingOrder</text><path fill="none" d="M303.96,269.3769 C307.51,281.0669 308.78,294.6369 301,304.2969 C287.47,321.0969 222.09,327.9869 192.1,330.3069" style="stroke:#000;stroke-width:1"/><polygon fill="#000" points="186.93 330.687 196.193 334.034 191.917 330.33 195.621 326.054 186.93 330.687" style="stroke:#000;stroke-width:1"/><text x="307" y="300.364" fill="#000" font-family="sans-serif" font-size="13" lengthAdjust="spacingAndGlyphs" textLength="286">Produced Events: InternationalShippingOrder</text><rect style="stroke:#fff;stroke-width:1" width="615" height="62.891" x="14.5" y="375" fill="#FFF" rx="5" ry="5"/><text x="20.5" y="392.995" fill="#000" font-family="sans-serif" font-size="14" lengthAdjust="spacingAndGlyphs" textLength="216">State Types and Border Colors:</text><text x="25.5" y="411.292" fill="#000" font-family="sans-serif" font-size="14" font-weight="bold" lengthAdjust="spacingAndGlyphs" textLength="44">Event</text><text x="79.5" y="411.292" fill="#000" font-family="sans-serif" font-size="14" font-weight="bold" lengthAdjust="spacingAndGlyphs" textLength="78">Operation</text><text x="167.5" y="411.292" fill="#000" font-family="sans-serif" font-size="14" font-weight="bold" lengthAdjust="spacingAndGlyphs" textLength="53">Switch</text><text x="230.5" y="411.292" fill="#000" font-family="sans-serif" font-size="14" font-weight="bold" lengthAdjust="spacingAndGlyphs" textLength="43">Delay</text><text x="283.5" y="411.292" fill="#000" font-family="sans-serif" font-size="14" font-weight="bold" lengthAdjust="spacingAndGlyphs" textLength="57">Parallel</text><text x="350.5" y="411.292" fill="#000" font-family="sans-serif" font-size="14" font-weight="bold" lengthAdjust="spacingAndGlyphs" textLength="67">SubFlow</text><text x="427.5" y="411.292" fill="#000" font-family="sans-serif" font-size="14" font-weight="bold" lengthAdjust="spacingAndGlyphs" textLength="43">Inject</text><text x="480.5" y="411.292" fill="#000" font-family="sans-serif" font-size="14" font-weight="bold" lengthAdjust="spacingAndGlyphs" textLength="63">ForEach</text><text x="553.5" y="411.292" fill="#000" font-family="sans-serif" font-size="14" font-weight="bold" lengthAdjust="spacingAndGlyphs" textLength="65">CallBack</text><rect style="stroke:none;stroke-width:1" width="54" height="16.297" x="20.5" y="414.594" fill="#7FE5F0"/><rect style="stroke:none;stroke-width:1" width="88" height="16.297" x="74.5" y="414.594" fill="#BADA55"/><rect style="stroke:none;stroke-width:1" width="63" height="16.297" x="162.5" y="414.594" fill="#92A0F2"/><rect style="stroke:none;stroke-width:1" width="53" height="16.297" x="225.5" y="414.594" fill="#B83B5E"/><rect style="stroke:none;stroke-width:1" width="67" height="16.297" x="278.5" y="414.594" fill="#6A2C70"/><rect style="stroke:none;stroke-width:1" width="77" height="16.297" x="345.5" y="414.594" fill="#87753C"/><rect style="stroke:none;stroke-width:1" width="53" height="16.297" x="422.5" y="414.594" fill="#1E5F74"/><rect style="stroke:none;stroke-width:1" width="73" height="16.297" x="475.5" y="414.594" fill="#931A25"/><rect style="stroke:none;stroke-width:1" width="75" height="16.297" x="548.5" y="414.594" fill="#FFCB8E"/><line style="stroke:#000;stroke-width:1" x1="20.5" x2="623.5" y1="398.297" y2="398.297"/><line style="stroke:#000;stroke-width:1" x1="20.5" x2="623.5" y1="414.594" y2="414.594"/><line style="stroke:#000;stroke-width:1" x1="20.5" x2="623.5" y1="430.891" y2="430.891"/><line style="stroke:#000;stroke-width:1" x1="20.5" x2="20.5" y1="398.297" y2="430.891"/><line style="stroke:#000;stroke-width:1" x1="74.5" x2="74.5" y1="398.297" y2="430.891"/><line style="stroke:#000;stroke-width:1" x1="162.5" x2="162.5" y1="398.297" y2="430.891"/><line style="stroke:#000;stroke-width:1" x1="225.5" x2="225.5" y1="398.297" y2="430.891"/><line style="stroke:#000;stroke-width:1" x1="278.5" x2="278.5" y1="398.297" y2="430.891"/><line style="stroke:#000;stroke-width:1" x1="345.5" x2="345.5" y1="398.297" y2="430.891"/><line style="stroke:#000;stroke-width:1" x1="422.5" x2="422.5" y1="398.297" y2="430.891"/><line style="stroke:#000;stroke-width:1" x1="475.5" x2="475.5" y1="398.297" y2="430.891"/><line style="stroke:#000;stroke-width:1" x1="548.5" x2="548.5" y1="398.297" y2="430.891"/><line style="stroke:#000;stroke-width:1" x1="623.5" x2="623.5" y1="398.297" y2="430.891"/></g></svg>